<svg width="134" height="134" viewBox="0 0 134 134" fill="none" xmlns="http://www.w3.org/2000/svg">
<path d="M79.0943 83.0943V56.9056C79.0943 55.8011 78.1989 54.9056 77.0943 54.9056H3.58807C2.02152 54.9056 1.06313 56.625 1.88699 57.9575L47.8538 132.299C48.4347 133.238 49.6673 133.529 50.6067 132.948L122.014 88.7955C123.728 87.7361 122.977 85.0944 120.962 85.0944L81.0943 85.0943C79.9898 85.0943 79.0943 84.1989 79.0943 83.0943Z" fill="white"/>
<path d="M45.3015 6.12734L18.0472 50.2793C15.9909 53.6105 18.3872 57.9057 22.3019 57.9057H76.0944L76.0943 83.0943C76.0943 85.8558 78.3329 88.0943 81.0943 88.0943H108.17C109.9 88.0943 111.508 87.1997 112.419 85.729L129.495 58.1883C130.951 55.8394 130.225 52.7544 127.875 51.3009L52.1858 4.50098C49.8358 3.04795 46.7528 3.7763 45.3015 6.12734Z" fill="#1E293B" stroke="white" stroke-width="6"/>
</svg>
